# xmcd
#
# Track frame offsets:
#	150
#	13826
#	27457
#	38789
#	52136
#	71843
#	88149
#	98750
#	118040
#	133973
#
# Disc length: 2021 seconds
#
# Revision: 1
# Processed by: cddbd v1.4PL0 Copyright (c) Steve Scherf et al.
# Submitted via: audiograbber 1.82.02
#
DISCID=9307e30a
DTITLE=Carrie R. - Marktkauf
DYEAR=1900
DGENRE=
TTITLE0=Ich komm gern in deine Welt (Marktkauf)
TTITLE1=Ich komm gern in deine Welt (Karaoke)
TTITLE2=Ich komm gern in deine Welt (Instrumental)
TTITLE3=Jede Menge Leben
TTITLE4=Yvonne's Song
TTITLE5=There's A Light
TTITLE6=Motherless Child
TTITLE7=Every New Day
TTITLE8=Place for Freedom
TTITLE9=Oh Happy Day
EXTD=
EXTT0=
EXTT1=
EXTT2=
EXTT3=
EXTT4=
EXTT5=
EXTT6=
EXTT7=
EXTT8=
EXTT9=
PLAYORDER=
